<svg width="74" height="74" viewBox="0 0 74 74" fill="none" xmlns="http://www.w3.org/2000/svg">
<path d="M37 2.3125C17.8427 2.3125 2.3125 17.8427 2.3125 37C2.3125 56.1573 17.8427 71.6875 37 71.6875C56.1573 71.6875 71.6875 56.1573 71.6875 37C71.6875 17.8427 56.1573 2.3125 37 2.3125ZM58.2574 58.2574C52.9864 63.5126 45.9476 66.6172 38.5126 66.9663C31.0776 67.3153 23.779 64.8837 18.0388 60.1454C12.2987 55.407 8.5283 48.7013 7.46227 41.3348C6.39624 33.9684 8.11096 26.4689 12.2723 20.2976C16.4337 14.1264 22.7436 9.72549 29.9725 7.95243C37.2014 6.17938 44.8315 7.1612 51.3761 10.7066C57.9207 14.252 62.9109 20.1069 65.3743 27.1306C67.8378 34.1543 67.5981 41.8436 64.7019 48.7002C63.1925 52.273 61.0039 55.5188 58.2574 58.2574Z" fill="#4CE158"/>
<path d="M21.9687 28.9062H27.75V34.6875H21.9687V28.9062ZM46.25 28.9062H52.0312V34.6875H46.25V28.9062ZM48.8933 44.4C47.9988 46.6573 46.4449 48.5927 44.4343 49.9539C42.4236 51.3152 40.0495 52.0391 37.6215 52.0312H36.3785C33.9504 52.0392 31.5762 51.3153 29.5654 49.9541C27.5547 48.5928 26.0008 46.6574 25.1062 44.4L24.9214 43.9375H19.9407L20.8125 46.1172C22.0569 49.2282 24.2049 51.895 26.9795 53.7735C29.754 55.6521 33.0278 56.6562 36.3785 56.6562H37.6215C40.9721 56.6562 44.2459 55.6521 47.0205 53.7735C49.7951 51.895 51.9431 49.2282 53.1875 46.1172L54.0593 43.9375H49.0782L48.8933 44.4Z" fill="#4CE158"/>
</svg>
