<svg width="35" height="36" viewBox="0 0 35 36" fill="none" xmlns="http://www.w3.org/2000/svg">
<path d="M9.41754 11.126C9.58654 11.0306 9.73068 10.9078 9.84138 10.7651C9.95208 10.6224 10.0271 10.4626 10.0619 10.2953C10.0967 10.1279 10.0906 9.95651 10.044 9.79118C9.99734 9.62586 9.91114 9.47003 9.7905 9.33298C9.66987 9.19592 9.51726 9.08045 9.34178 8.99345C9.1663 8.90644 8.97153 8.84968 8.76909 8.82655C8.56665 8.80342 8.36067 8.81438 8.16344 8.8588C7.96621 8.90322 7.78176 8.98017 7.62108 9.08508L9.41754 11.126ZM2.02868 28.253L0.524524 28.4521C0.57874 28.7306 0.743435 28.986 0.99243 29.1778C1.24143 29.3696 1.56043 29.4867 1.89874 29.5106C2.23704 29.5344 2.57523 29.4636 2.85955 29.3094C3.14386 29.1552 3.35799 28.9265 3.46789 28.6595L2.02868 28.253ZM14.7806 20.5599C15.1633 20.4525 15.4791 20.2232 15.6584 19.9224C15.8377 19.6216 15.8658 19.2739 15.7366 18.9558C15.6074 18.6377 15.3315 18.3753 14.9694 18.2264C14.6074 18.0774 14.189 18.054 13.8062 18.1614L14.7806 20.5599ZM21.5645 4.91043L22.0578 5.42657L24.4449 3.85623L23.9517 3.34009L21.5645 4.91043ZM25.9694 7.14535L26.7408 7.18414L26.9295 4.65911L26.1582 4.62032L25.9694 7.14535ZM28.6428 10.4446L28.2307 11.0012L30.8229 12.3287L31.237 11.772L28.6428 10.4446ZM27.5872 14.6614L27.7882 15.3024L30.7336 14.6631L30.5306 14.0204L27.5872 14.6614ZM24.9362 17.8544L24.1892 17.6823L23.3772 20.1213L24.1222 20.2934L24.9362 17.8544ZM19.835 18.2626L19.1895 18.6201L20.8784 20.7252L21.5239 20.3676L19.835 18.2626ZM15.5235 16.9368L15.4748 16.2739L12.434 16.4291L12.4847 17.092L15.5235 16.9368ZM13.4875 12.9662L12.8867 12.5446L10.9217 14.4759L11.5226 14.8975L13.4875 12.9662ZM13.4733 8.95183L14.1899 8.714L13.0592 6.36439L12.3426 6.60222L13.4733 8.95183ZM17.2611 6.06753L17.5351 5.4485L14.677 4.57477L14.405 5.19212L17.2611 6.06753ZM14.1899 8.714C14.8536 8.49473 15.623 8.26533 16.1913 7.77449L13.995 6.0203C14.0132 6.0068 14.0051 6.02367 13.8671 6.08102C13.602 6.18351 13.3325 6.27802 13.0592 6.36439L14.1899 8.714ZM14.405 5.19212C14.3045 5.42942 14.1948 5.664 14.0762 5.89548C14.0051 6.02199 13.9808 6.03379 13.995 6.0203L16.1913 7.77449C16.7536 7.28872 17.0074 6.64101 17.2611 6.06753L14.405 5.19212ZM12.8867 12.5429C11.687 11.6995 10.9217 11.1598 10.4528 10.7178C10.3145 10.5983 10.1983 10.4624 10.1077 10.3147C10.0942 10.2877 10.0894 10.2765 10.0935 10.281V10.2911L7.08112 9.92676C6.89843 10.9557 7.5074 11.767 8.16915 12.3928C8.82075 13.005 9.79713 13.6865 10.9217 14.4759L12.8867 12.5429ZM12.3406 6.60222C11.0049 7.04583 9.8357 7.42871 8.99735 7.84028C8.13464 8.26196 7.26381 8.88605 7.08112 9.92676L10.0935 10.2911L10.0854 10.308L10.0996 10.2928C10.2296 10.1836 10.3788 10.0915 10.5421 10.0195C11.1308 9.73278 12.0402 9.42749 13.4733 8.95183L12.3406 6.60222ZM15.4707 16.2739C15.4261 15.6515 15.4037 14.9785 15.0444 14.3797L12.3183 15.5064L12.3284 15.5317C12.3379 15.552 12.348 15.597 12.3589 15.6667C12.3873 15.8286 12.4035 16.0462 12.432 16.4291L15.4707 16.2739ZM11.5205 14.8975C11.8656 15.1421 12.0605 15.2787 12.1965 15.3917C12.2547 15.4401 12.2905 15.4721 12.3041 15.4879L12.3183 15.5064L15.0444 14.3797C14.6831 13.7759 14.0498 13.3609 13.4855 12.9662L11.5205 14.8975ZM19.1854 18.6201C17.8944 19.3353 17.0743 19.784 16.4573 20.0252C15.8564 20.258 15.8645 20.1264 16.0005 20.1854L14.5735 22.4203C15.7143 22.923 16.847 22.6649 17.7442 22.3191C18.6232 21.9767 19.6726 21.3914 20.8743 20.7252L19.1854 18.6201ZM12.4827 17.092C12.574 18.3334 12.6512 19.4028 12.8501 20.2107C13.0511 21.0204 13.4571 21.9295 14.5735 22.4203L16.0005 20.1854C16.1142 20.236 15.9762 20.2816 15.832 19.6996C15.6859 19.1127 15.623 18.2609 15.5235 16.9368L12.4827 17.092ZM24.1892 17.6823C23.5031 17.5255 22.7134 17.3146 21.9035 17.4226L22.3866 19.9206C22.3541 19.9257 22.3683 19.9139 22.5226 19.9375C22.7012 19.9678 22.9408 20.0218 23.3752 20.1213L24.1892 17.6823ZM21.5219 20.3676C21.8954 20.1601 22.1024 20.0471 22.2628 19.9729C22.3988 19.9105 22.4171 19.9172 22.3846 19.9223L21.9035 17.4226C21.0936 17.5305 20.4257 17.9336 19.833 18.2626L21.5219 20.3676ZM27.7862 15.304C28.1881 16.586 28.4459 17.4124 28.5271 18.0079C28.6083 18.5982 28.4581 18.5898 28.5474 18.5139L30.7417 20.2681C31.6166 19.5107 31.6653 18.5409 31.5537 17.7211C31.44 16.9031 31.1091 15.8657 30.7316 14.6631L27.7862 15.304ZM24.1202 20.2951C25.5127 20.6155 26.7306 20.8972 27.6928 20.9934C28.6773 21.0912 29.8485 21.0406 30.7417 20.2681L28.5474 18.5139C28.6529 18.4228 28.7098 18.5459 28.0541 18.4801C27.3761 18.4127 26.4302 18.1985 24.9341 17.8561L24.1202 20.2951ZM28.2287 11.0012C27.843 11.5241 27.3964 12.0807 27.2787 12.7486L30.2911 13.1147L30.2992 13.0911L30.3641 12.973C30.5074 12.7536 30.6605 12.5387 30.8229 12.3287L28.2287 11.0012ZM30.5306 14.0204C30.4486 13.7751 30.3741 13.5275 30.3114 13.2783L30.2911 13.14V13.1147L27.2787 12.7486C27.1609 13.4115 27.3944 14.0575 27.5832 14.6597L30.5306 14.0204ZM26.7408 7.18414C28.2815 7.2651 29.2558 7.31908 29.9216 7.43884C30.1033 7.46503 30.2792 7.51394 30.4433 7.58389C30.465 7.59626 30.4717 7.59964 30.4636 7.59401L30.4514 7.57883L33.1756 6.4521C32.6112 5.50922 31.5476 5.14489 30.5692 4.96778C29.6192 4.79574 28.3647 4.73333 26.9295 4.65911L26.7408 7.18414ZM31.237 11.772C32.0084 10.7296 32.6762 9.82893 33.0659 9.07665C33.4618 8.31087 33.7358 7.38486 33.1756 6.4521L30.4494 7.57883L30.4474 7.5704V7.60582C30.4161 7.76969 30.3559 7.92883 30.2687 8.0781C29.9886 8.61786 29.4669 9.33303 28.6428 10.4446L31.237 11.772ZM22.0578 5.42657C22.5125 5.9056 22.9976 6.45547 23.7121 6.77258L25.1392 4.53767C25.1595 4.5461 25.1331 4.54104 25.0174 4.43984C24.8185 4.25043 24.6269 4.0558 24.4429 3.85623L22.0578 5.42657ZM26.1582 4.62032C25.8665 4.60934 25.5733 4.58965 25.2833 4.56128C25.1331 4.54273 25.1168 4.52755 25.1392 4.53767L23.7121 6.77258C24.4368 7.09306 25.2569 7.10824 25.9674 7.14366L26.1582 4.62032ZM23.9517 3.34009C23.0342 2.37528 22.2405 1.53698 21.5259 0.978675C20.8094 0.416995 19.831 -0.137938 18.5602 0.0307346L19.0413 2.52878C18.8789 2.5507 18.9277 2.41914 19.4372 2.82058C19.9507 3.22202 20.582 3.87984 21.5645 4.91212L23.9517 3.34009ZM17.5372 5.4485C18.0852 4.21382 18.4384 3.42443 18.7754 2.90829C19.1103 2.39552 19.2057 2.50685 19.0413 2.52878L18.5602 0.0307346C17.2895 0.199407 16.5689 0.982048 16.098 1.70059C15.6311 2.41745 15.1906 3.42105 14.6791 4.57477L17.5372 5.4485ZM7.61905 9.08339C2.32708 12.3 -1.42622 18.3267 0.522493 28.4521L3.52878 28.054C1.72217 18.6657 5.22985 13.6713 9.41754 11.126L7.61905 9.08339ZM3.46789 28.6595C4.9213 25.1005 9.44393 22.0543 14.7806 20.5599L13.8042 18.1614C7.94992 19.8025 2.45293 23.2721 0.583391 27.8465L3.46789 28.6595Z" fill="#FFD400"/>
<path d="M14.2693 24.8796C14.2693 24.8796 15.5563 27.2241 17.1396 28.0338C18.7229 28.8383 21.8206 28.7253 21.8206 28.7253C21.8206 28.7253 18.999 29.793 18.0247 31.1087C17.0544 32.4243 17.1924 35 17.1924 35C17.1924 35 15.9054 32.6554 14.3221 31.8458C12.7408 31.0429 9.64114 31.1542 9.64114 31.1542C9.64114 31.1542 12.4627 30.0865 13.4371 28.7709C14.4074 27.4552 14.2693 24.8796 14.2693 24.8796ZM30.9146 23.1929C30.9146 23.1929 30.0579 24.7565 29.0024 25.2945C27.9468 25.8326 25.8804 25.7567 25.8804 25.7567C25.8804 25.7567 27.7621 26.4685 28.4097 27.3456C29.0572 28.2227 28.9659 29.9398 28.9659 29.9398C28.9659 29.9398 29.8225 28.3762 30.878 27.8381C31.9336 27.3 34 27.376 34 27.376C34 27.376 32.1183 26.6642 31.4708 25.7871C30.8232 24.91 30.9146 23.1929 30.9146 23.1929Z" stroke="#FFD400" stroke-width="1.07407" stroke-linejoin="round"/>
</svg>
