<svg width="50" height="50" viewBox="0 0 50 50" fill="none" xmlns="http://www.w3.org/2000/svg">
<circle cx="25" cy="25" r="25" fill="#805B2E"/>
<path fill-rule="evenodd" clip-rule="evenodd" d="M32.6054 22.792C32.6054 24.5988 31.8876 26.3316 30.61 27.6093C29.3323 28.8869 27.5995 29.6047 25.7926 29.6047C23.9858 29.6047 22.253 28.8869 20.9753 27.6093C19.6977 26.3316 18.9799 24.5988 18.9799 22.792C18.9799 20.9851 19.6977 19.2523 20.9753 17.9746C22.253 16.697 23.9858 15.9792 25.7926 15.9792C27.5995 15.9792 29.3323 16.697 30.61 17.9746C31.8876 19.2523 32.6054 20.9851 32.6054 22.792ZM29.199 22.792C29.199 23.6954 28.8401 24.5618 28.2013 25.2006C27.5625 25.8394 26.6961 26.1983 25.7926 26.1983C24.8892 26.1983 24.0228 25.8394 23.384 25.2006C22.7452 24.5618 22.3863 23.6954 22.3863 22.792C22.3863 21.8885 22.7452 21.0221 23.384 20.3833C24.0228 19.7445 24.8892 19.3856 25.7926 19.3856C26.6961 19.3856 27.5625 19.7445 28.2013 20.3833C28.8401 21.0221 29.199 21.8885 29.199 22.792Z" fill="white"/>
<path fill-rule="evenodd" clip-rule="evenodd" d="M14.7587 33.4301C12.563 31.3395 11.0366 28.6449 10.3724 25.6868C9.70819 22.7287 9.93609 19.6401 11.0273 16.8116C12.1184 13.983 14.0239 11.5416 16.5026 9.79594C18.9813 8.05032 21.922 7.07893 24.9528 7.00461C27.9837 6.93029 30.9684 7.75638 33.5298 9.37842C36.0911 11.0005 38.1139 13.3456 39.3424 16.1173C40.5708 18.8889 40.9499 21.9626 40.4314 24.9497C39.913 27.9368 38.5205 30.703 36.4299 32.8987L25.86 44L14.7587 33.4301ZM33.9637 30.55L25.7425 39.1851L17.1074 30.9639C15.3997 29.3379 14.2125 27.2421 13.696 24.9414C13.1794 22.6407 13.3567 20.2385 14.2053 18.0386C15.054 15.8387 16.5359 13.9398 18.4638 12.5821C20.3916 11.2244 22.6788 10.4688 25.036 10.4109C27.3932 10.3531 29.7147 10.9955 31.7068 12.2569C33.699 13.5184 35.2723 15.3423 36.2279 17.4979C37.1835 19.6535 37.4785 22.0441 37.0754 24.3674C36.6724 26.6906 35.5895 28.8422 33.9637 30.55Z" fill="white"/>
</svg>
