<svg width="33" height="48" viewBox="0 0 33 48" fill="none" xmlns="http://www.w3.org/2000/svg">
<path d="M16.5 22.3929C14.9371 22.3929 13.4382 21.772 12.3331 20.6669C11.228 19.5618 10.6071 18.0629 10.6071 16.5C10.6071 14.9371 11.228 13.4382 12.3331 12.3331C13.4382 11.228 14.9371 10.6071 16.5 10.6071C18.0629 10.6071 19.5618 11.228 20.6669 12.3331C21.772 13.4382 22.3929 14.9371 22.3929 16.5C22.3929 17.2739 22.2404 18.0401 21.9443 18.7551C21.6481 19.4701 21.2141 20.1197 20.6669 20.6669C20.1197 21.2141 19.4701 21.6481 18.7551 21.9443C18.0401 22.2404 17.2739 22.3929 16.5 22.3929ZM16.5 0C12.1239 0 7.92709 1.73839 4.83274 4.83274C1.73839 7.92709 0 12.1239 0 16.5C0 28.875 16.5 47.1429 16.5 47.1429C16.5 47.1429 33 28.875 33 16.5C33 12.1239 31.2616 7.92709 28.1673 4.83274C25.0729 1.73839 20.8761 0 16.5 0Z" fill="black"/>
</svg>
