<svg width="50" height="50" viewBox="0 0 50 50" fill="none" xmlns="http://www.w3.org/2000/svg">
<mask id="mask0_58_692" style="mask-type:alpha" maskUnits="userSpaceOnUse" x="0" y="0" width="50" height="50">
<rect width="50" height="50" fill="#D9D9D9"/>
</mask>
<g mask="url(#mask0_58_692)">
<path d="M27.9427 23.776C28.7587 22.96 29.1667 21.9791 29.1667 20.8333C29.1667 19.6875 28.7587 18.7066 27.9427 17.8906C27.1267 17.0746 26.1458 16.6666 25 16.6666C23.8542 16.6666 22.8733 17.0746 22.0573 17.8906C21.2413 18.7066 20.8333 19.6875 20.8333 20.8333C20.8333 21.9791 21.2413 22.96 22.0573 23.776C22.8733 24.592 23.8542 25 25 25C26.1458 25 27.1267 24.592 27.9427 23.776ZM25 40.3125C29.2361 36.4236 32.3785 32.8906 34.4271 29.7135C36.4757 26.5364 37.5 23.7152 37.5 21.25C37.5 17.4652 36.2934 14.3663 33.8802 11.9531C31.467 9.53989 28.507 8.33329 25 8.33329C21.4931 8.33329 18.533 9.53989 16.1198 11.9531C13.7066 14.3663 12.5 17.4652 12.5 21.25C12.5 23.7152 13.5243 26.5364 15.5729 29.7135C17.6215 32.8906 20.7639 36.4236 25 40.3125ZM25 45.8333C19.4097 41.0764 15.2344 36.6579 12.474 32.5781C9.71355 28.4982 8.33334 24.7222 8.33334 21.25C8.33334 16.0416 10.0087 11.8923 13.3594 8.80204C16.7101 5.71177 20.5903 4.16663 25 4.16663C29.4097 4.16663 33.2899 5.71177 36.6406 8.80204C39.9913 11.8923 41.6667 16.0416 41.6667 21.25C41.6667 24.7222 40.2865 28.4982 37.5261 32.5781C34.7656 36.6579 30.5903 41.0764 25 45.8333Z" fill="#FFF8DD"/>
</g>
</svg>
