<svg width="42" height="42" viewBox="0 0 42 42" fill="none" xmlns="http://www.w3.org/2000/svg">
<path d="M21 1.3125C10.1269 1.3125 1.3125 10.1269 1.3125 21C1.3125 31.8731 10.1269 40.6875 21 40.6875C31.8731 40.6875 40.6875 31.8731 40.6875 21C40.6875 10.1269 31.8731 1.3125 21 1.3125ZM33.065 33.065C30.0733 36.0477 26.0784 37.8098 21.8585 38.0079C17.6386 38.206 13.4962 36.8259 10.2383 34.1366C6.98035 31.4472 4.84039 27.6413 4.23534 23.4603C3.6303 19.2793 4.60352 15.0229 6.96537 11.5203C9.32722 8.01768 12.9085 5.51987 17.0114 4.51354C21.1143 3.50722 25.4449 4.06446 29.1594 6.07671C32.8739 8.08895 35.7062 11.412 37.1043 15.3985C38.5025 19.3849 38.3665 23.7491 36.7227 27.6407C35.866 29.6685 34.6238 31.5107 33.065 33.065Z" fill="#FFD400"/>
<path d="M12.4686 16.4062H15.7499V19.6875H12.4686V16.4062ZM26.2499 16.4062H29.5311V19.6875H26.2499V16.4062ZM27.7501 25.2C27.2424 26.4812 26.3605 27.5796 25.2193 28.3522C24.0782 29.1248 22.7307 29.5357 21.3526 29.5312H20.6471C19.269 29.5357 17.9215 29.1249 16.7803 28.3523C15.6391 27.5797 14.7571 26.4812 14.2494 25.2L14.1444 24.9375H11.3176L11.8124 26.1746C12.5187 27.9403 13.7378 29.4539 15.3126 30.5201C16.8873 31.5863 18.7454 32.1562 20.6471 32.1562H21.3526C23.2543 32.1562 25.1124 31.5863 26.6872 30.5201C28.2619 29.4539 29.4811 27.9403 30.1874 26.1746L30.6822 24.9375H27.8551L27.7501 25.2Z" fill="#FFD400"/>
</svg>
