<svg width="76" height="76" viewBox="0 0 76 76" fill="none" xmlns="http://www.w3.org/2000/svg">
<path d="M38 2.375C18.3249 2.375 2.375 18.3249 2.375 38C2.375 57.6751 18.3249 73.625 38 73.625C57.6751 73.625 73.625 57.6751 73.625 38C73.625 18.3249 57.6751 2.375 38 2.375ZM59.8319 59.8319C54.4184 65.2292 47.1894 68.4177 39.5535 68.7762C31.9175 69.1346 24.4216 66.6373 18.5264 61.7709C12.6311 56.9045 8.7588 50.0175 7.66396 42.452C6.56911 34.8864 8.33018 27.1843 12.604 20.8462C16.8778 14.5082 23.3582 9.98834 30.7826 8.16737C38.2069 6.34639 46.0432 7.35475 52.7646 10.9959C59.4861 14.6372 64.6112 20.6504 67.1412 27.8639C69.6713 35.0774 69.4251 42.9745 66.4506 50.0165C64.9004 53.6858 62.6526 57.0193 59.8319 59.8319Z" fill="#FF945F"/>
<path d="M22.5625 29.6875H28.5V35.625H22.5625V29.6875ZM47.5 29.6875H53.4375V35.625H47.5V29.6875ZM38 42.75C34.5368 42.7539 31.2166 44.1314 28.7678 46.5803C26.3189 49.0291 24.9414 52.3493 24.9375 55.8125H29.6875C29.6875 53.6079 30.5633 51.4936 32.1222 49.9347C33.6811 48.3758 35.7954 47.5 38 47.5C40.2046 47.5 42.3189 48.3758 43.8778 49.9347C45.4367 51.4936 46.3125 53.6079 46.3125 55.8125H51.0625C51.0586 52.3493 49.6811 49.0291 47.2322 46.5803C44.7834 44.1314 41.4632 42.7539 38 42.75Z" fill="#FF945F"/>
</svg>
