<svg width="41" height="41" viewBox="0 0 41 41" fill="none" xmlns="http://www.w3.org/2000/svg">
<mask id="mask0_58_729" style="mask-type:alpha" maskUnits="userSpaceOnUse" x="0" y="0" width="41" height="41">
<rect width="41" height="41" fill="#D9D9D9"/>
</mask>
<g mask="url(#mask0_58_729)">
<path d="M25.625 35.875L15.375 32.2875L7.43125 35.3625C6.86181 35.5903 6.33507 35.5262 5.85104 35.1703C5.36701 34.8144 5.125 34.3375 5.125 33.7396V9.82292C5.125 9.45278 5.23177 9.12535 5.44531 8.84063C5.65885 8.5559 5.95069 8.34236 6.32083 8.2L15.375 5.125L25.625 8.7125L33.5688 5.6375C34.1382 5.40972 34.6649 5.47378 35.149 5.82969C35.633 6.18559 35.875 6.6625 35.875 7.26042V31.1771C35.875 31.5472 35.7682 31.8747 35.5547 32.1594C35.3411 32.4441 35.0493 32.6576 34.6792 32.8L25.625 35.875ZM23.9167 31.6896V11.7021L17.0833 9.31042V29.2979L23.9167 31.6896ZM27.3333 31.6896L32.4583 29.9813V9.7375L27.3333 11.7021V31.6896ZM8.54167 31.2625L13.6667 29.2979V9.31042L8.54167 11.0188V31.2625Z" fill="#1C1B1F"/>
</g>
</svg>
