<svg width="28" height="32" viewBox="0 0 28 32" fill="none" xmlns="http://www.w3.org/2000/svg">
<path d="M3.11111 31.1111C2.25556 31.1111 1.52315 30.8065 0.913889 30.1972C0.30463 29.588 0 28.8556 0 28V6.22222C0 5.36667 0.30463 4.63426 0.913889 4.025C1.52315 3.41574 2.25556 3.11111 3.11111 3.11111H4.66667V0H7.77778V3.11111H20.2222V0H23.3333V3.11111H24.8889C25.7444 3.11111 26.4769 3.41574 27.0861 4.025C27.6954 4.63426 28 5.36667 28 6.22222V28C28 28.8556 27.6954 29.588 27.0861 30.1972C26.4769 30.8065 25.7444 31.1111 24.8889 31.1111H3.11111ZM3.11111 28H24.8889V12.4444H3.11111V28ZM3.11111 9.33333H24.8889V6.22222H3.11111V9.33333ZM14 18.6667C13.5593 18.6667 13.1898 18.5176 12.8917 18.2194C12.5935 17.9213 12.4444 17.5519 12.4444 17.1111C12.4444 16.6704 12.5935 16.3009 12.8917 16.0028C13.1898 15.7046 13.5593 15.5556 14 15.5556C14.4407 15.5556 14.8102 15.7046 15.1083 16.0028C15.4065 16.3009 15.5556 16.6704 15.5556 17.1111C15.5556 17.5519 15.4065 17.9213 15.1083 18.2194C14.8102 18.5176 14.4407 18.6667 14 18.6667ZM6.66944 18.2194C6.3713 17.9213 6.22222 17.5519 6.22222 17.1111C6.22222 16.6704 6.3713 16.3009 6.66944 16.0028C6.96759 15.7046 7.33704 15.5556 7.77778 15.5556C8.21852 15.5556 8.58796 15.7046 8.88611 16.0028C9.18426 16.3009 9.33333 16.6704 9.33333 17.1111C9.33333 17.5519 9.18426 17.9213 8.88611 18.2194C8.58796 18.5176 8.21852 18.6667 7.77778 18.6667C7.33704 18.6667 6.96759 18.5176 6.66944 18.2194ZM20.2222 18.6667C19.7815 18.6667 19.412 18.5176 19.1139 18.2194C18.8157 17.9213 18.6667 17.5519 18.6667 17.1111C18.6667 16.6704 18.8157 16.3009 19.1139 16.0028C19.412 15.7046 19.7815 15.5556 20.2222 15.5556C20.663 15.5556 21.0324 15.7046 21.3306 16.0028C21.6287 16.3009 21.7778 16.6704 21.7778 17.1111C21.7778 17.5519 21.6287 17.9213 21.3306 18.2194C21.0324 18.5176 20.663 18.6667 20.2222 18.6667ZM14 24.8889C13.5593 24.8889 13.1898 24.7398 12.8917 24.4417C12.5935 24.1435 12.4444 23.7741 12.4444 23.3333C12.4444 22.8926 12.5935 22.5231 12.8917 22.225C13.1898 21.9269 13.5593 21.7778 14 21.7778C14.4407 21.7778 14.8102 21.9269 15.1083 22.225C15.4065 22.5231 15.5556 22.8926 15.5556 23.3333C15.5556 23.7741 15.4065 24.1435 15.1083 24.4417C14.8102 24.7398 14.4407 24.8889 14 24.8889ZM6.66944 24.4417C6.3713 24.1435 6.22222 23.7741 6.22222 23.3333C6.22222 22.8926 6.3713 22.5231 6.66944 22.225C6.96759 21.9269 7.33704 21.7778 7.77778 21.7778C8.21852 21.7778 8.58796 21.9269 8.88611 22.225C9.18426 22.5231 9.33333 22.8926 9.33333 23.3333C9.33333 23.7741 9.18426 24.1435 8.88611 24.4417C8.58796 24.7398 8.21852 24.8889 7.77778 24.8889C7.33704 24.8889 6.96759 24.7398 6.66944 24.4417ZM20.2222 24.8889C19.7815 24.8889 19.412 24.7398 19.1139 24.4417C18.8157 24.1435 18.6667 23.7741 18.6667 23.3333C18.6667 22.8926 18.8157 22.5231 19.1139 22.225C19.412 21.9269 19.7815 21.7778 20.2222 21.7778C20.663 21.7778 21.0324 21.9269 21.3306 22.225C21.6287 22.5231 21.7778 22.8926 21.7778 23.3333C21.7778 23.7741 21.6287 24.1435 21.3306 24.4417C21.0324 24.7398 20.663 24.8889 20.2222 24.8889Z" fill="#1C1B1F"/>
</svg>
