<svg xmlns="http://www.w3.org/2000/svg" width="74" height="74" viewBox="0 0 74 74" fill="none">
  <path d="M37 2.3125C17.8427 2.3125 2.3125 17.8427 2.3125 37C2.3125 56.1573 17.8427 71.6875 37 71.6875C56.1573 71.6875 71.6875 56.1573 71.6875 37C71.6875 17.8427 56.1573 2.3125 37 2.3125ZM58.2574 58.2574C52.9864 63.5126 45.9476 66.6172 38.5126 66.9663C31.0776 67.3153 23.779 64.8837 18.0388 60.1454C12.2987 55.407 8.5283 48.7013 7.46227 41.3348C6.39624 33.9684 8.11096 26.4689 12.2723 20.2976C16.4337 14.1264 22.7436 9.72549 29.9725 7.95243C37.2014 6.17938 44.8315 7.1612 51.3761 10.7066C57.9207 14.252 62.9109 20.1069 65.3743 27.1306C67.8378 34.1543 67.5981 41.8436 64.7019 48.7002C63.1925 52.273 61.0039 55.5188 58.2574 58.2574Z" fill="black"/>
  <path d="M21.969 28.9062H27.7502V34.6875H21.969V28.9062ZM46.2502 28.9062H52.0315V34.6875H46.2502V28.9062ZM48.8936 44.4C47.999 46.6573 46.4451 48.5927 44.4345 49.9539C42.4239 51.3152 40.0498 52.0391 37.6217 52.0312H36.3787C33.9506 52.0392 31.5764 51.3153 29.5657 49.9541C27.555 48.5928 26.001 46.6574 25.1065 44.4L24.9216 43.9375H19.9409L20.8127 46.1172C22.0571 49.2282 24.2052 51.895 26.9797 53.7735C29.7543 55.6521 33.0281 56.6562 36.3787 56.6562H37.6217C40.9724 56.6562 44.2462 55.6521 47.0207 53.7735C49.7953 51.895 51.9433 49.2282 53.1877 46.1172L54.0595 43.9375H49.0784L48.8936 44.4Z" fill="black"/>
</svg>